HIERARCHY
ROOT Hips
{
	OFFSET 56.877701 -32.693596 43.373703
	CHANNELS 6 Xposition Yposition Zposition Zrotation Xrotation Yrotation
	JOINT Chest
	{
		OFFSET -0.779999 1.005800 5.403099
		CHANNELS 6 Xposition Yposition Zposition Zrotation Xrotation Yrotation
		JOINT Chest2
		{
			OFFSET 0.000000 0.000000 4.236801
			CHANNELS 6 Xposition Yposition Zposition Zrotation Xrotation Yrotation
			JOINT Neck
			{
				OFFSET 0.000000 0.000000 9.874401
				CHANNELS 6 Xposition Yposition Zposition Zrotation Xrotation Yrotation
				JOINT Head
				{
					OFFSET 0.000000 0.000002 2.173893
					CHANNELS 6 Xposition Yposition Zposition Zrotation Xrotation Yrotation
					End Site
					{
						OFFSET 0.000000 0.000000 6.508102
					}
				}
			}
			JOINT LeftCollar
			{
				OFFSET 2.681599 -0.377600 5.432499
				CHANNELS 6 Xposition Yposition Zposition Zrotation Xrotation Yrotation
				JOINT LeftShoulder
				{
					OFFSET 5.161499 0.000000 0.000000
					CHANNELS 6 Xposition Yposition Zposition Zrotation Xrotation Yrotation
					JOINT LeftElbow
					{
						OFFSET 0.000000 0.000000 -10.869099
						CHANNELS 6 Xposition Yposition Zposition Zrotation Xrotation Yrotation
						JOINT LeftWrist
						{
							OFFSET 0.000000 0.000000 -13.344799
							CHANNELS 6 Xposition Yposition Zposition Zrotation Xrotation Yrotation
							End Site
							{
								OFFSET 0.000000 0.000000 -2.173901
							}
						}
					}
				}
			}
			JOINT RightCollar
			{
				OFFSET -2.381901 -1.419600 6.136600
				CHANNELS 6 Xposition Yposition Zposition Zrotation Xrotation Yrotation
				JOINT RightShoulder
				{
					OFFSET -4.550499 0.000000 0.000000
					CHANNELS 6 Xposition Yposition Zposition Zrotation Xrotation Yrotation
					JOINT RightElbow
					{
						OFFSET 0.000000 0.000000 -11.106499
						CHANNELS 6 Xposition Yposition Zposition Zrotation Xrotation Yrotation
						JOINT RightWrist
						{
							OFFSET 0.000000 0.000000 -12.874298
							CHANNELS 6 Xposition Yposition Zposition Zrotation Xrotation Yrotation
							End Site
							{
								OFFSET 0.000000 0.000000 -2.173901
							}
						}
					}
				}
			}
		}
	}
	JOINT LeftHip
	{
		OFFSET 2.431900 0.469601 -2.489399
		CHANNELS 6 Xposition Yposition Zposition Zrotation Xrotation Yrotation
		JOINT LeftKnee
		{
			OFFSET 0.000000 -0.000004 -18.200201
			CHANNELS 6 Xposition Yposition Zposition Zrotation Xrotation Yrotation
			JOINT LeftAnkle
			{
				OFFSET 0.000000 0.000000 -16.279900
				CHANNELS 6 Xposition Yposition Zposition Zrotation Xrotation Yrotation
				End Site
				{
					OFFSET 0.000000 -8.394100 0.000000
				}
			}
		}
	}
	JOINT RightHip
	{
		OFFSET -1.987999 -0.073502 -2.713001
		CHANNELS 6 Xposition Yposition Zposition Zrotation Xrotation Yrotation
		JOINT RightKnee
		{
			OFFSET 0.000000 -0.000004 -19.547802
			CHANNELS 6 Xposition Yposition Zposition Zrotation Xrotation Yrotation
			JOINT RightAnkle
			{
				OFFSET 0.000000 0.000000 -14.881199
				CHANNELS 6 Xposition Yposition Zposition Zrotation Xrotation Yrotation
				End Site
				{
					OFFSET 0.000000 -7.922699 0.000000
				}
			}
		}
	}
}
MOTION
Frames: 4
Frame Time: 0.041667
78.424896 15.293404 42.341202 4834.584496 7.151530 -1.430558 -0.779991 1.005798 5.403097 -1.856293 -5.098983 -8.503658 0.000000 -0.000002 4.236805 -0.062712 -1.624672 -0.219891 0.000006 0.000006 9.874389 -51.191189 -8.639978 18.590861 0.000002 0.000001 2.173898 -3.350811 2.087311 -7.987886 2.681597 -0.377594 5.432494 0.495183 -1.310328 -10.331870 5.161499 0.000006 -0.000010 -160.216021 -200.030354 -225.062424 -0.000006 -0.000003 -10.869084 -3.820563 -25.239455 35.380267 -0.000006 -0.000001 -13.344795 5.921749 -8.101387 -20.046907 -2.381905 -1.419596 6.136590 12.873114 4.608714 7.313918 -4.550506 0.000002 0.000002 -1240.219630 -487.998766 -458.178433 0.000009 0.000000 -11.106506 679.988663 -29.238220 703.322665 0.000002 -0.000009 -12.874294 -376.005438 -3.867541 10.517119 2.431903 0.469596 -2.489389 2.214135 -11.424991 5.019350 0.000018 -0.000009 -18.200197 26.063244 20.228339 9.456333 0.000008 -0.000001 -16.279896 -9.369013 33.612006 -16.685307 -1.987991 -0.073496 -2.713004 -144.747718 -16.753554 -112.501385 -0.000003 -0.000010 -19.547806 -2134.887859 136.116613 401.417157 0.000002 0.000014 -14.881211 1755.251629 19.775262 -18.777986
78.447502 15.192104 42.337105 4834.612472 6.947566 -1.628805 -0.779992 1.005806 5.403095 -2.143381 -4.885735 -8.277400 0.000005 -0.000007 4.236793 0.007023 -1.647439 -0.221707 0.000000 0.000007 9.874392 -51.028545 -8.797085 18.562644 0.000001 0.000009 2.173884 -3.420037 2.065270 -7.857762 2.681604 -0.377593 5.432489 0.476028 -1.292011 -10.251497 5.161488 -0.000001 0.000001 -160.406419 -199.904570 -225.160369 0.000000 -0.000003 -10.869100 -4.587630 -24.780772 33.992031 -0.000000 -0.000004 -13.344796 5.414634 -8.557096 -17.978347 -2.381905 -1.419596 6.136590 13.133025 4.991419 7.546022 -4.550499 -0.000004 0.000005 -1239.894185 -487.695560 -457.870692 0.000013 -0.000002 -11.106509 680.421915 -29.095079 703.696905 0.000001 -0.000000 -12.874283 -377.144686 -3.592886 9.985197 2.431904 0.469604 -2.489405 2.383688 -11.440041 5.115666 0.000011 -0.000012 -18.200195 26.717497 20.470743 9.264489 0.000012 -0.000004 -16.279902 -10.095848 33.810092 -16.781500 -1.987991 -0.073495 -2.713016 -144.381702 -17.377907 -111.577308 -0.000004 -0.000002 -19.547802 -2134.998235 135.724629 401.305634 0.000012 0.000002 -14.881207 1755.587128 19.844899 -18.439458
78.472000 15.088596 42.338406 4834.619904 6.762812 -1.762441 -0.780003 1.005795 5.403090 -2.395964 -4.675192 -8.107474 0.000006 0.000004 4.236801 0.096751 -1.649285 -0.219223 0.000002 0.000010 9.874392 -51.028647 -9.057653 18.510468 0.000007 -0.000004 2.173898 -3.531485 2.044928 -7.694375 2.681596 -0.377593 5.432487 0.487886 -1.324129 -10.218666 5.161503 -0.000003 -0.000010 -160.725389 -199.729416 -225.174371 -0.000002 0.000000 -10.869101 -5.696027 -24.492300 32.427242 0.000002 0.000004 -13.344794 5.453968 -9.619527 -14.873481 -2.381896 -1.419590 6.136586 13.350307 5.321364 7.703740 -4.550500 -0.000004 -0.000002 -1239.545244 -487.696817 -457.490305 0.000006 0.000002 -11.106503 680.250669 -28.989515 703.881812 -0.000000 0.000001 -12.874284 -377.849343 -3.341816 9.521167 2.431901 0.469597 -2.489398 2.454667 -11.408838 5.187119 0.000010 -0.000011 -18.200197 27.234399 20.528830 9.159766 -0.000003 -0.000000 -16.279898 -10.577808 34.025656 -16.904841 -1.988010 -0.073505 -2.713006 -143.959337 -17.981168 -110.531059 0.000005 -0.000010 -19.547781 -2135.533721 135.642653 401.546575 0.000016 -0.000003 -14.881203 1755.722420 19.929701 -18.243268
78.488800 14.977901 42.337608 4834.736181 6.612993 -1.924619 -0.779997 1.005802 5.403106 -2.671236 -4.543226 -7.884127 0.000005 0.000002 4.236796 0.140218 -1.652951 -0.219163 0.000010 0.000008 9.874396 -50.995118 -9.229518 18.559803 0.000003 -0.000001 2.173894 -3.388847 1.885930 -7.858159 2.681606 -0.377597 5.432497 0.425448 -1.317611 -10.172657 5.161492 0.000001 -0.000002 -160.994252 -199.460279 -225.164289 -0.000003 -0.000002 -10.869096 -6.956697 -24.089153 30.781979 -0.000001 -0.000004 -13.344801 5.615014 -10.926637 -11.392570 -2.381898 -1.419599 6.136590 13.455204 5.470191 7.846280 -4.550496 0.000000 0.000000 -1239.120898 -487.336948 -457.153577 0.000008 -0.000004 -11.106507 680.539504 -28.674609 704.178133 -0.000003 -0.000000 -12.874305 -378.400048 -3.068803 8.910579 2.431902 0.469604 -2.489388 2.582381 -11.466523 5.376018 0.000012 -0.000008 -18.200199 27.153456 20.587700 8.923822 -0.000001 -0.000004 -16.279900 -10.730472 34.107905 -16.811862 -1.987982 -0.073495 -2.712999 -143.607610 -18.501647 -109.413613 -0.000010 -0.000007 -19.547802 -2135.580495 135.251652 401.401174 0.000015 0.000008 -14.881193 1756.144034 19.927161 -17.918827
